<svg width="24" height="24" viewBox="0 0 24 24" fill="none" xmlns="http://www.w3.org/2000/svg">
<path fill-rule="evenodd" clip-rule="evenodd" d="M12.75 1C13.1642 1 13.5 1.33579 13.5 1.75V3.75C13.5 3.7616 13.4997 3.77315 13.4992 3.78462C17.3195 4.13944 20.3606 7.18048 20.7154 11.0008C20.7269 11.0003 20.7384 11 20.75 11H22.75C23.1642 11 23.5 11.3358 23.5 11.75C23.5 12.1642 23.1642 12.5 22.75 12.5H20.75C20.7384 12.5 20.7269 12.4997 20.7154 12.4992C20.3606 16.3195 17.3195 19.3606 13.4992 19.7154C13.4997 19.7269 13.5 19.7384 13.5 19.75V21.75C13.5 22.1642 13.1642 22.5 12.75 22.5C12.3358 22.5 12 22.1642 12 21.75V19.75C12 19.7384 12.0003 19.7269 12.0008 19.7154C8.18048 19.3606 5.13944 16.3195 4.78462 12.4992C4.77315 12.4997 4.7616 12.5 4.75 12.5H2.75C2.33579 12.5 2 12.1642 2 11.75C2 11.3358 2.33579 11 2.75 11H4.75C4.7616 11 4.77315 11.0003 4.78462 11.0008C5.13944 7.18048 8.18047 4.13944 12.0008 3.78462C12.0003 3.77315 12 3.7616 12 3.75V1.75C12 1.33579 12.3358 1 12.75 1ZM9.99761 12.1659L11.5128 12.6709C11.6621 12.7207 11.7793 12.8379 11.8291 12.9872L12.3341 14.5024C12.4795 14.9386 13.0869 14.9638 13.268 14.5412L15.2576 9.89893C15.4354 9.48407 15.0159 9.0646 14.6011 9.2424L9.95877 11.232C9.53618 11.4131 9.56145 12.0205 9.99761 12.1659Z" fill="#F37474"/>
</svg>
