<svg width="24" height="24" viewBox="0 0 24 24" fill="none" xmlns="http://www.w3.org/2000/svg">
<path fill-rule="evenodd" clip-rule="evenodd" d="M4.75 2C3.64543 2 2.75 2.89543 2.75 4V8C2.75 9.10457 3.64543 10 4.75 10H10.75C11.8546 10 12.75 9.10457 12.75 8V4C12.75 2.89543 11.8546 2 10.75 2H4.75ZM14.75 14C13.6454 14 12.75 14.8954 12.75 16V20C12.75 21.1046 13.6454 22 14.75 22H20.75C21.8546 22 22.75 21.1046 22.75 20V16C22.75 14.8954 21.8546 14 20.75 14H14.75ZM21.3536 6.75L20.6339 7.46967C20.341 7.76256 20.341 8.23744 20.6339 8.53033C20.9268 8.82322 21.4016 8.82322 21.6945 8.53033L22.9874 7.23744C23.6709 6.55402 23.6709 5.44598 22.9874 4.76256L21.6945 3.46967C21.4016 3.17678 20.9268 3.17678 20.6339 3.46967C20.341 3.76256 20.341 4.23744 20.6339 4.53033L21.3536 5.25H16.75C16.3358 5.25 16 5.58579 16 6C16 6.41421 16.3358 6.75 16.75 6.75H21.3536ZM4.86612 19.4697L4.14645 18.75H8.75C9.16421 18.75 9.5 18.4142 9.5 18C9.5 17.5858 9.16421 17.25 8.75 17.25H4.14645L4.86612 16.5303C5.15901 16.2374 5.15901 15.7626 4.86612 15.4697C4.57322 15.1768 4.09835 15.1768 3.80546 15.4697L2.51256 16.7626C1.82914 17.446 1.82915 18.554 2.51256 19.2374L3.80546 20.5303C4.09835 20.8232 4.57322 20.8232 4.86612 20.5303C5.15901 20.2374 5.15901 19.7626 4.86612 19.4697Z" fill="#FEBE4F"/>
</svg>
