<svg width="19" height="19" viewBox="0 0 19 19" fill="none" xmlns="http://www.w3.org/2000/svg">
<path fill-rule="evenodd" clip-rule="evenodd" d="M10.0088 5.146H6.33325V4.75016C6.33325 3.00126 7.75102 1.5835 9.49992 1.5835H14.2499C15.9988 1.5835 17.4166 3.00126 17.4166 4.75016V9.50016C17.4166 11.2491 15.9988 12.6668 14.2499 12.6668H13.8541V8.99123C13.8541 6.86757 12.1325 5.146 10.0088 5.146ZM9.49992 17.4168H4.74992C3.00102 17.4168 1.58325 15.9991 1.58325 14.2502V9.50016C1.58325 7.75126 3.00102 6.3335 4.74992 6.3335H9.49992C11.2488 6.3335 12.6666 7.75126 12.6666 9.50016V14.2502C12.6666 15.9991 11.2488 17.4168 9.49992 17.4168Z" fill="#6C92FB"/>
</svg>
