<svg width="19" height="19" viewBox="0 0 19 19" fill="none" xmlns="http://www.w3.org/2000/svg">
<path fill-rule="evenodd" clip-rule="evenodd" d="M16.7281 11.1998C17.6461 10.2339 17.6461 8.76642 16.7281 7.80053C15.1797 6.17147 12.5205 3.9585 9.49992 3.9585C6.4793 3.9585 3.8201 6.17147 2.27177 7.80053C1.35375 8.76642 1.35375 10.2339 2.27177 11.1998C3.8201 12.8289 6.4793 15.0418 9.49992 15.0418C12.5205 15.0418 15.1797 12.8289 16.7281 11.1998ZM9.49992 11.8752C10.8116 11.8752 11.8749 10.8118 11.8749 9.50016C11.8749 8.18849 10.8116 7.12516 9.49992 7.12516C8.18824 7.12516 7.12492 8.18849 7.12492 9.50016C7.12492 10.8118 8.18824 11.8752 9.49992 11.8752Z" fill="#757185"/>
</svg>
