<svg width="24" height="24" viewBox="0 0 24 24" fill="none" xmlns="http://www.w3.org/2000/svg">
<path opacity="0.2" d="M23.9349 12.0002C23.9349 18.5927 18.5908 23.937 11.9983 23.937C5.40576 23.937 0.0615234 18.5927 0.0615234 12.0002C0.0615234 5.40772 5.40576 0.0634766 11.9983 0.0634766C18.5907 0.0634766 23.9349 5.40772 23.9349 12.0002Z" fill="#00A478"/>
<path d="M10.7742 11.7913V9.70303H7.94189V7.87256H15.8566V9.72881H13.0242V11.7913H10.7742Z" fill="#00A478"/>
<path fill-rule="evenodd" clip-rule="evenodd" d="M6.72412 12.0235C6.72412 11.3274 9.00059 10.7603 11.8329 10.7603C14.6653 10.7603 16.9418 11.3274 16.9418 12.0235C16.9418 12.7196 14.6653 13.2868 11.8329 13.2868C9.00059 13.2868 6.72412 12.7196 6.72412 12.0235ZM16.5182 12.0235C16.3329 11.7657 14.7977 10.9665 11.8329 10.9665C8.86824 10.9665 7.33294 11.7399 7.14765 12.0235C7.33294 12.2813 8.86824 12.6681 11.8329 12.6681C14.8241 12.6681 16.3329 12.2813 16.5182 12.0235Z" fill="#00A478"/>
<path d="M13.0238 12.4357V10.992C12.6532 10.9662 12.2562 10.9404 11.8591 10.9404C11.4885 10.9404 11.1444 10.9404 10.8003 10.9662V12.41C11.1179 12.41 11.4885 12.4357 11.8591 12.4357C12.2562 12.4615 12.6532 12.4615 13.0238 12.4357Z" fill="#00A478"/>
<path d="M11.8327 13.2864C11.4622 13.2864 11.118 13.2864 10.7739 13.2606V17.1021H12.9975V13.2349C12.6269 13.2606 12.2298 13.2864 11.8327 13.2864Z" fill="#00A478"/>
</svg>
