<svg width="19" height="19" viewBox="0 0 19 19" fill="none" xmlns="http://www.w3.org/2000/svg">
<path opacity="0.2" d="M18.9484 9.50018C18.9484 14.7193 14.7176 18.9502 9.49853 18.9502C4.27944 18.9502 0.048584 14.7193 0.048584 9.50018C0.048584 4.28115 4.27944 0.050293 9.49853 0.050293C14.7175 0.050293 18.9484 4.28115 18.9484 9.50018Z" fill="#00A478"/>
<path d="M8.52939 9.33477V7.68154H6.28711V6.23242H12.5529V7.70195H10.3106V9.33477H8.52939Z" fill="#00A478"/>
<path fill-rule="evenodd" clip-rule="evenodd" d="M5.32324 9.51841C5.32324 8.96733 7.12545 8.51831 9.36773 8.51831C11.61 8.51831 13.4122 8.96733 13.4122 9.51841C13.4122 10.0695 11.61 10.5185 9.36773 10.5185C7.12545 10.5185 5.32324 10.0695 5.32324 9.51841ZM13.0769 9.51841C12.9302 9.31431 11.7148 8.68159 9.36773 8.68159C7.02067 8.68159 5.80523 9.2939 5.65854 9.51841C5.80523 9.72251 7.02067 10.0287 9.36773 10.0287C11.7357 10.0287 12.9302 9.72251 13.0769 9.51841Z" fill="#00A478"/>
<path d="M10.3108 9.84492V8.70195C10.0174 8.68154 9.70311 8.66113 9.38877 8.66113C9.09539 8.66113 8.82296 8.66113 8.55054 8.68154V9.82451C8.80201 9.82451 9.09539 9.84492 9.38877 9.84492C9.70311 9.86533 10.0174 9.86533 10.3108 9.84492Z" fill="#00A478"/>
<path d="M9.36778 10.5184C9.07439 10.5184 8.80197 10.5184 8.52954 10.4979V13.5391H10.2898V10.4775C9.99645 10.4979 9.68211 10.5184 9.36778 10.5184Z" fill="#00A478"/>
</svg>
