<svg width="214" height="33" viewBox="0 0 214 33" fill="none" xmlns="http://www.w3.org/2000/svg">
<path d="M76.44 24L75.528 22.152H66.504L65.592 24H59.976L68.208 7.224H73.824L82.056 24H76.44ZM73.44 17.952L70.992 12.936L68.52 17.952H73.44ZM97.0067 24.024L94.7987 19.824H88.6067V24.024H83.4947V7.224H96.3107C99.7907 7.224 102.623 10.032 102.623 13.512C102.623 15.624 101.567 17.496 99.9587 18.648L102.791 24.024H97.0067ZM88.6067 11.424V15.624H95.3747C96.5507 15.624 97.4867 14.664 97.4867 13.512C97.4867 12.36 96.5507 11.424 95.3747 11.424H88.6067ZM110.075 19.824H122.219V24.024H104.963V7.224H122.219V11.424H110.075V13.512H121.283V17.712H110.075V19.824ZM153.568 6.744C160.552 6.744 164.296 9.072 164.296 15.6C164.296 22.608 160.552 24.48 153.568 24.48H134.896C128.344 24.48 124.168 22.608 124.168 15.6C124.168 9.072 127.888 6.744 134.896 6.744H153.568ZM153.568 20.28C156.808 20.28 158.68 19.344 158.68 15.6C158.68 11.88 156.88 10.944 153.568 10.944H134.896C131.608 10.944 129.76 11.88 129.76 15.6C129.76 19.344 131.608 20.28 134.896 20.28H153.568ZM183.621 15.192C184.869 16.056 185.709 17.52 185.709 19.176C185.709 21.84 183.525 24.024 180.861 24.024L166.581 24V7.2L179.925 7.224C182.589 7.224 184.773 9.384 184.773 12.048C184.773 13.248 184.341 14.352 183.621 15.192ZM178.461 11.424H171.693V13.752H178.461C179.109 13.752 179.637 13.224 179.637 12.576C179.637 11.928 179.109 11.424 178.461 11.424ZM179.397 19.824C180.045 19.824 180.573 19.296 180.573 18.648C180.573 18 180.045 17.472 179.397 17.472H171.693V19.824H179.397ZM193.021 24.024H187.909V7.224H193.021V24.024ZM213.396 7.224V11.424H206.628V24.024H201.492V11.424H194.748V7.224H213.396Z" fill="white"/>
<path d="M22.6503 29.8536C20.9476 29.8536 19.5278 30.6944 18.6777 32.162H48.0014L30.7523 2.28581C29.9142 0.831447 28.4718 0 26.7929 0H18.7681L24.0077 9.07549L36.0039 29.8536H22.649H22.6503Z" fill="white"/>
<path d="M22.6503 29.8536C20.9476 29.8536 19.5278 30.6944 18.6777 32.162H48.0014L30.7523 2.28581C29.9142 0.831447 28.4718 0 26.7929 0H18.7681L24.0077 9.07549L36.0039 29.8536H22.649H22.6503Z" fill="url(#paint0_angular_1_17350)"/>
<path d="M12.0002 29.8755L24.0109 9.07349H15.9701C14.2913 9.07349 12.8502 9.90493 12.0108 11.358L0 32.1613H8.04084C9.71966 32.1613 11.1607 31.3299 12.0002 29.8755Z" fill="white"/>
<path d="M12.0002 29.8755L24.0109 9.07349H15.9701C14.2913 9.07349 12.8502 9.90493 12.0108 11.358L0 32.1613H8.04084C9.71966 32.1613 11.1607 31.3299 12.0002 29.8755Z" fill="url(#paint1_angular_1_17350)"/>
<defs>
<radialGradient id="paint0_angular_1_17350" cx="0" cy="0" r="1" gradientUnits="userSpaceOnUse" gradientTransform="translate(30.6387 13.0741) rotate(81.9464) scale(19.2781 17.7752)">
<stop offset="0.130208" stop-color="#FACB7C"/>
<stop offset="0.385417" stop-color="#89F9E8"/>
<stop offset="0.640625" stop-color="#9299FC"/>
<stop offset="0.890625" stop-color="#D77DEE"/>
</radialGradient>
<radialGradient id="paint1_angular_1_17350" cx="0" cy="0" r="1" gradientUnits="userSpaceOnUse" gradientTransform="translate(9.79394 18.4588) rotate(80.8317) scale(13.8798 14.5119)">
<stop offset="0.130208" stop-color="#FACB7C"/>
<stop offset="0.385417" stop-color="#89F9E8"/>
<stop offset="0.640625" stop-color="#9299FC"/>
<stop offset="0.890625" stop-color="#D77DEE"/>
</radialGradient>
</defs>
</svg>
