<svg width="18" height="18" viewBox="0 0 18 18" fill="none" xmlns="http://www.w3.org/2000/svg">
<path fill-rule="evenodd" clip-rule="evenodd" d="M12.75 3.75V6.84405C11.6977 6.07736 10.4017 5.625 9 5.625C7.59834 5.625 6.30233 6.07736 5.25 6.84405V3.75C5.25 2.92157 5.92157 2.25 6.75 2.25H11.25C12.0784 2.25 12.75 2.92157 12.75 3.75ZM16.8977 8.64775C17.1174 8.42808 17.1174 8.07192 16.8977 7.85225C16.6781 7.63258 16.3219 7.63258 16.1023 7.85225L15.3523 8.60225C15.1326 8.82192 15.1326 9.17808 15.3523 9.39775C15.5719 9.61742 15.9281 9.61742 16.1477 9.39775L16.8977 8.64775ZM15.3523 14.6023C15.5719 14.3826 15.9281 14.3826 16.1477 14.6023L16.8977 15.3523C17.1174 15.5719 17.1174 15.9281 16.8977 16.1477C16.6781 16.3674 16.3219 16.3674 16.1023 16.1477L15.3523 15.3977C15.1326 15.1781 15.1326 14.8219 15.3523 14.6023ZM1.10225 8.64775C0.882582 8.42808 0.882582 8.07192 1.10225 7.85225C1.32192 7.63258 1.67808 7.63258 1.89775 7.85225L2.64775 8.60225C2.86742 8.82192 2.86742 9.17808 2.64775 9.39775C2.42808 9.61742 2.07192 9.61742 1.85225 9.39775L1.10225 8.64775ZM2.64775 14.6023C2.42808 14.3826 2.07192 14.3826 1.85225 14.6023L1.10225 15.3523C0.882582 15.5719 0.882582 15.9281 1.10225 16.1477C1.32192 16.3674 1.67808 16.3674 1.89775 16.1477L2.64775 15.3977C2.86742 15.1781 2.86742 14.8219 2.64775 14.6023ZM9 17.25C11.8995 17.25 14.25 14.8995 14.25 12C14.25 9.1005 11.8995 6.75 9 6.75C6.1005 6.75 3.75 9.1005 3.75 12C3.75 14.8995 6.1005 17.25 9 17.25ZM9.5625 9.75C9.5625 9.55505 9.46156 9.374 9.29572 9.27151C9.12989 9.16902 8.92281 9.1597 8.74844 9.24688L7.99844 9.62188C7.72058 9.76082 7.60795 10.0987 7.74688 10.3766C7.87529 10.6334 8.17365 10.749 8.4375 10.6554V13.6875H8.25C7.93934 13.6875 7.6875 13.9393 7.6875 14.25C7.6875 14.5607 7.93934 14.8125 8.25 14.8125H9H9.75C10.0607 14.8125 10.3125 14.5607 10.3125 14.25C10.3125 13.9393 10.0607 13.6875 9.75 13.6875H9.5625V9.75Z" fill="#6A92FC"/>
</svg>
