<svg width="18" height="18" viewBox="0 0 18 18" fill="none" xmlns="http://www.w3.org/2000/svg">
<path fill-rule="evenodd" clip-rule="evenodd" d="M15.0114 2.05475C15.3115 2.13516 15.4896 2.4436 15.4092 2.74367L15.1346 3.76819C15.0542 4.06827 14.7458 4.24634 14.4457 4.16594C14.1456 4.08553 13.9676 3.77709 14.048 3.47702L14.3225 2.4525C14.4029 2.15243 14.7113 1.97435 15.0114 2.05475ZM11.9019 3.32689C11.3973 2.45289 10.1909 2.31654 9.50397 3.05586L4.66757 8.26094C4.8363 8.41398 4.98447 8.59545 5.10448 8.80331L6.97948 12.0509C7.0995 12.2588 7.18258 12.4779 7.23075 12.7005L14.1567 11.1146C15.1404 10.8894 15.6255 9.77646 15.1209 8.90246L11.9019 3.32689ZM5.88658 12.5454L4.01158 9.29781C3.70092 8.75973 3.01288 8.57537 2.4748 8.88603C1.93672 9.19669 1.75236 9.88473 2.06302 10.4228L3.93802 13.6704C4.24868 14.2085 4.93672 14.3928 5.4748 14.0822C6.01288 13.7715 6.19724 13.0835 5.88658 12.5454ZM10.2824 15.8601L8.8549 13.3875L11.1496 12.8621L12.231 14.7351C12.5417 15.2732 12.3573 15.9612 11.8192 16.2719C11.2811 16.5825 10.5931 16.3982 10.2824 15.8601ZM16.2369 5.6774C15.9368 5.597 15.6284 5.77508 15.548 6.07515C15.4676 6.37522 15.6456 6.68366 15.9457 6.76407L16.9702 7.03859C17.2703 7.11899 17.5788 6.94092 17.6592 6.64084C17.7396 6.34077 17.5615 6.03233 17.2614 5.95192L16.2369 5.6774Z" fill="#79D979"/>
</svg>
