<svg width="18" height="18" viewBox="0 0 18 18" fill="none" xmlns="http://www.w3.org/2000/svg">
<path fill-rule="evenodd" clip-rule="evenodd" d="M4.5 15.75C2.84315 15.75 1.5 14.4069 1.5 12.75V12C1.5 11.5858 1.845 11.2622 2.23642 11.1267C3.1174 10.8217 3.75 9.98473 3.75 9C3.75 8.01527 3.1174 7.17829 2.23642 6.87328C1.845 6.73776 1.5 6.41421 1.5 6V5.25C1.5 3.59315 2.84315 2.25 4.5 2.25H13.5C15.1569 2.25 16.5 3.59315 16.5 5.25V6C16.5 6.41421 16.155 6.73776 15.7636 6.87328C14.8826 7.17829 14.25 8.01527 14.25 9C14.25 9.98473 14.8826 10.8217 15.7636 11.1267C16.155 11.2622 16.5 11.5858 16.5 12V12.75C16.5 14.4069 15.1569 15.75 13.5 15.75H4.5ZM6.75 7.5C7.16421 7.5 7.5 7.16421 7.5 6.75C7.5 6.33579 7.16421 6 6.75 6C6.33579 6 6 6.33579 6 6.75C6 7.16421 6.33579 7.5 6.75 7.5ZM12 11.25C12 11.6642 11.6642 12 11.25 12C10.8358 12 10.5 11.6642 10.5 11.25C10.5 10.8358 10.8358 10.5 11.25 10.5C11.6642 10.5 12 10.8358 12 11.25ZM11.6477 7.14775C11.8674 6.92808 11.8674 6.57192 11.6477 6.35225C11.4281 6.13258 11.0719 6.13258 10.8523 6.35225L6.35225 10.8523C6.13258 11.0719 6.13258 11.4281 6.35225 11.6477C6.57192 11.8674 6.92808 11.8674 7.14775 11.6477L11.6477 7.14775Z" fill="#FEBE4F"/>
</svg>
