<svg width="18" height="18" viewBox="0 0 18 18" fill="none" xmlns="http://www.w3.org/2000/svg">
<path d="M15 2.25H6C5.17157 2.25 4.5 2.92157 4.5 3.75V6C4.5 6.41421 4.16421 6.75 3.75 6.75C2.50736 6.75 1.5 7.75736 1.5 9C1.5 10.2426 2.50736 11.25 3.75 11.25C4.16421 11.25 4.5 11.5858 4.5 12V14.25C4.5 15.0784 5.17157 15.75 6 15.75H7.5C7.91421 15.75 8.25 15.4142 8.25 15C8.25 13.7574 9.25736 12.75 10.5 12.75C11.7426 12.75 12.75 13.7574 12.75 15C12.75 15.4142 13.0858 15.75 13.5 15.75H15C15.8284 15.75 16.5 15.0784 16.5 14.25V12C16.5 11.5858 16.1642 11.25 15.75 11.25C14.5074 11.25 13.5 10.2426 13.5 9C13.5 7.75736 14.5074 6.75 15.75 6.75C16.1642 6.75 16.5 6.41421 16.5 6V3.75C16.5 2.92157 15.8284 2.25 15 2.25Z" fill="#925FD9"/>
</svg>
