<svg width="18" height="18" viewBox="0 0 18 18" fill="none" xmlns="http://www.w3.org/2000/svg">
<path fill-rule="evenodd" clip-rule="evenodd" d="M8.25 2.25H9.75C13.4779 2.25 16.5 5.27208 16.5 9C16.5 12.7279 13.4779 15.75 9.75 15.75H4.5C2.84315 15.75 1.5 14.4069 1.5 12.75V9C1.5 5.27208 4.52208 2.25 8.25 2.25ZM9.59388 6.44888C9.51028 6.18122 9.27052 6 9 6C8.72948 6 8.48972 6.18122 8.40612 6.44888L7.98553 7.79553H6.62448C6.35396 7.79553 6.1142 7.97675 6.03061 8.24441C5.94701 8.51207 6.03859 8.80529 6.25745 8.97071L7.35856 9.80298L6.93797 11.1496C6.85437 11.4173 6.94595 11.7105 7.16481 11.8759C7.38367 12.0414 7.68003 12.0414 7.89889 11.8759L9 11.0437L10.1011 11.8759C10.32 12.0414 10.6163 12.0414 10.8352 11.8759C11.054 11.7105 11.1456 11.4173 11.062 11.1496L10.6414 9.80298L11.7426 8.97071C11.9614 8.80529 12.053 8.51207 11.9694 8.24441C11.8858 7.97675 11.646 7.79553 11.3755 7.79553H10.0145L9.59388 6.44888Z" fill="#F169FD"/>
</svg>
