<svg width="16" height="18" viewBox="0 0 16 18" fill="none" xmlns="http://www.w3.org/2000/svg">
<path fill-rule="evenodd" clip-rule="evenodd" d="M8 -1.95626e-06C8.33987 -1.95626e-06 8.61539 0.275515 8.61539 0.615383V2.25641C8.61539 2.59628 8.33987 2.87179 8 2.87179C7.66013 2.87179 7.38462 2.59628 7.38462 2.25641V0.615383C7.38462 0.275515 7.66013 -1.95626e-06 8 -1.95626e-06ZM13.8271 7.25047C12.4724 6.09261 10.3658 4.71795 8 4.71795C5.63416 4.71795 3.52762 6.09261 2.17292 7.25047C1.19022 8.09037 1.19022 9.55065 2.17292 10.3906C3.52762 11.5484 5.63416 12.9231 8 12.9231C10.3658 12.9231 12.4724 11.5484 13.8271 10.3906C14.8098 9.55065 14.8098 8.09037 13.8271 7.25047ZM8 10.4615C8.90631 10.4615 9.64103 9.72682 9.64103 8.82051C9.64103 7.9142 8.90631 7.17949 8 7.17949C7.09369 7.17949 6.35897 7.9142 6.35897 8.82051C6.35897 9.72682 7.09369 10.4615 8 10.4615ZM8.61539 15.3846C8.61539 15.0447 8.33987 14.7692 8 14.7692C7.66013 14.7692 7.38462 15.0447 7.38462 15.3846V17.0256C7.38462 17.3655 7.66013 17.641 8 17.641C8.33987 17.641 8.61539 17.3655 8.61539 17.0256V15.3846ZM0.180242 2.64178C0.420565 2.40146 0.810205 2.40146 1.05053 2.64178L2.2813 3.87255C2.52162 4.11287 2.52162 4.50251 2.2813 4.74283C2.04097 4.98316 1.65133 4.98316 1.41101 4.74283L0.180242 3.51206C-0.0600807 3.27174 -0.0600807 2.8821 0.180242 2.64178ZM15.8198 2.64178C16.0601 2.8821 16.0601 3.27174 15.8198 3.51206L14.589 4.74283C14.3487 4.98316 13.959 4.98316 13.7187 4.74283C13.4784 4.50251 13.4784 4.11287 13.7187 3.87255L14.9495 2.64178C15.1898 2.40146 15.5794 2.40146 15.8198 2.64178ZM1.05053 14.9992C0.810205 15.2396 0.420565 15.2396 0.180242 14.9992C-0.0600807 14.7589 -0.0600807 14.3693 0.180242 14.129L1.41101 12.8982C1.65133 12.6579 2.04097 12.6579 2.2813 12.8982C2.52162 13.1385 2.52162 13.5282 2.2813 13.7685L1.05053 14.9992ZM15.8198 14.129C16.0601 14.3693 16.0601 14.7589 15.8198 14.9992C15.5794 15.2396 15.1898 15.2396 14.9495 14.9992L13.7187 13.7685C13.4784 13.5282 13.4784 13.1385 13.7187 12.8982C13.959 12.6579 14.3487 12.6579 14.589 12.8982L15.8198 14.129Z" fill="#F37474"/>
</svg>
