<svg width="33" height="33" viewBox="0 0 33 33" fill="none" xmlns="http://www.w3.org/2000/svg">
<rect x="0.5" y="0.5" width="32" height="32" rx="9.5" stroke="#FEBE4F"/>
<path fill-rule="evenodd" clip-rule="evenodd" d="M19.75 10.25C21.4069 10.25 22.75 11.5931 22.75 13.25V15.25C22.75 16.6307 21.6307 17.75 20.25 17.75H19.625C18.5895 17.75 17.75 18.5895 17.75 19.625C17.75 20.6605 16.9105 21.5 15.875 21.5H13.25C11.5931 21.5 10.25 20.1569 10.25 18.5V18.0625H12.75C13.9581 18.0625 14.9375 17.0831 14.9375 15.875C14.9375 14.6669 13.9581 13.6875 12.75 13.6875H10.25V13.25C10.25 11.5931 11.5931 10.25 13.25 10.25H19.75ZM14 15.875C14 15.1846 13.4404 14.625 12.75 14.625H10.25V17.125H12.75C13.4404 17.125 14 16.5654 14 15.875ZM19.9565 20.3226L20.4062 19.8728V22.125C20.4062 22.3839 20.6161 22.5938 20.875 22.5938C21.1339 22.5938 21.3438 22.3839 21.3438 22.125V19.8728L21.7935 20.3226C21.9766 20.5056 22.2734 20.5056 22.4565 20.3226C22.6395 20.1395 22.6395 19.8427 22.4565 19.6597L21.6484 18.8516C21.2213 18.4245 20.5287 18.4245 20.1016 18.8516L19.2935 19.6597C19.1105 19.8427 19.1105 20.1395 19.2935 20.3226C19.4766 20.5056 19.7734 20.5056 19.9565 20.3226Z" fill="#FEBE4F"/>
</svg>
