<svg width="33" height="33" viewBox="0 0 33 33" fill="none" xmlns="http://www.w3.org/2000/svg">
<rect x="0.5" y="0.5" width="32" height="32" rx="9.5" stroke="#EF7276"/>
<path fill-rule="evenodd" clip-rule="evenodd" d="M17.125 11.3438C17.125 11.0849 17.3349 10.875 17.5938 10.875H20.0938C21.043 10.875 21.8125 11.6445 21.8125 12.5938V15.0938C21.8125 15.3526 21.6026 15.5625 21.3438 15.5625C21.0849 15.5625 20.875 15.3526 20.875 15.0938V12.5938C20.875 12.5562 20.8724 12.5193 20.8672 12.4832L11.6752 21.6752C11.4921 21.8583 11.1954 21.8583 11.0123 21.6752C10.8292 21.4921 10.8292 21.1954 11.0123 21.0123L20.2043 11.8203C20.1682 11.8151 20.1313 11.8125 20.0938 11.8125H17.5938C17.3349 11.8125 17.125 11.6026 17.125 11.3438ZM15.0938 13.8438C15.0938 14.5341 14.5341 15.0938 13.8438 15.0938C13.1534 15.0938 12.5938 14.5341 12.5938 13.8438C12.5938 13.1534 13.1534 12.5938 13.8438 12.5938C14.5341 12.5938 15.0938 13.1534 15.0938 13.8438ZM20.0938 18.8438C20.0938 19.5341 19.5341 20.0938 18.8438 20.0938C18.1534 20.0938 17.5938 19.5341 17.5938 18.8438C17.5938 18.1534 18.1534 17.5938 18.8438 17.5938C19.5341 17.5938 20.0938 18.1534 20.0938 18.8438Z" fill="#EF7276"/>
</svg>
