<svg width="33" height="33" viewBox="0 0 33 33" fill="none" xmlns="http://www.w3.org/2000/svg">
<path fill-rule="evenodd" clip-rule="evenodd" d="M17.9626 13.7636C17.6515 13.5973 17.3153 13.4858 16.9688 13.4328V10.2675C17.834 10.3326 18.678 10.5773 19.4462 10.9879C20.3527 11.4725 21.1257 12.173 21.6967 13.0276C22.2677 13.8822 22.6192 14.8645 22.7199 15.8873C22.7246 15.9353 22.7288 15.9832 22.7324 16.0312H19.5671C19.4986 15.5829 19.3325 15.1544 19.0798 14.7762C18.7964 14.3519 18.4126 14.0041 17.9626 13.7636ZM13.0277 11.3033C13.9251 10.7036 14.9602 10.3481 16.0312 10.2675V13.4328C15.5842 13.5012 15.1554 13.6667 14.7762 13.9201C14.266 14.2611 13.8683 14.7456 13.6335 15.3126C13.3986 15.8795 13.3372 16.5034 13.4569 17.1053C13.5459 17.5526 13.7319 17.9728 13.9998 18.3373L11.7616 20.5755C11.0612 19.7612 10.5807 18.7779 10.3701 17.7193C10.1289 16.5069 10.2527 15.2502 10.7258 14.1082C11.1988 12.9661 11.9999 11.99 13.0277 11.3033ZM12.4245 21.2384C13.0823 21.8042 13.8522 22.228 14.6857 22.4808C15.6693 22.7792 16.7113 22.8304 17.7193 22.6299C18.718 22.4312 19.6529 21.9916 20.4428 21.3494L17.6258 19.3912C17.4577 19.4567 17.2836 19.5076 17.1053 19.5431C16.6049 19.6426 16.0876 19.6172 15.5993 19.4691C15.2617 19.3667 14.9452 19.2078 14.6627 19.0002L12.4245 21.2384ZM19.3666 17.6873C19.4624 17.4558 19.5296 17.2145 19.5671 16.9687H22.7324C22.6828 17.6277 22.5289 18.277 22.2743 18.8917C22 19.554 21.6147 20.1619 21.1371 20.6904L18.5097 18.8639C18.8844 18.5453 19.1782 18.1421 19.3666 17.6873Z" fill="#7ADB78"/>
<rect x="0.5" y="0.5" width="32" height="32" rx="9.5" stroke="#7ADB78"/>
</svg>
