<svg width="22" height="22" viewBox="0 0 22 22" fill="none" xmlns="http://www.w3.org/2000/svg">
<path fill-rule="evenodd" clip-rule="evenodd" d="M5.50065 2.75C3.47561 2.75 1.83398 4.39162 1.83398 6.41667V15.5833C1.83398 17.6084 3.47561 19.25 5.50065 19.25H16.5007C18.5257 19.25 20.1673 17.6084 20.1673 15.5833V6.41667C20.1673 4.39162 18.5257 2.75 16.5007 2.75H5.50065ZM5.88201 6.76126C5.56608 6.55064 5.13924 6.63601 4.92862 6.95194C4.718 7.26786 4.80337 7.69471 5.1193 7.90533L8.5854 10.2161C10.048 11.1911 11.9533 11.1911 13.4159 10.2161L16.882 7.90533C17.1979 7.69471 17.2833 7.26786 17.0727 6.95194C16.8621 6.63601 16.4352 6.55064 16.1193 6.76126L12.6532 9.07199C11.6525 9.73913 10.3488 9.73913 9.34811 9.07199L5.88201 6.76126Z" fill="#757185"/>
</svg>
