<svg width="22" height="22" viewBox="0 0 22 22" fill="none" xmlns="http://www.w3.org/2000/svg">
<path fill-rule="evenodd" clip-rule="evenodd" d="M11 15.5833C12.8333 15.5833 16.5 11.2876 16.5 8.25C16.5 5.21243 14.0376 2.75 11 2.75C7.96243 2.75 5.5 5.21243 5.5 8.25C5.5 11.2876 9.16667 15.5833 11 15.5833ZM11 10.0833C12.0125 10.0833 12.8333 9.26252 12.8333 8.25C12.8333 7.23748 12.0125 6.41667 11 6.41667C9.98748 6.41667 9.16667 7.23748 9.16667 8.25C9.16667 9.26252 9.98748 10.0833 11 10.0833Z" fill="#757185"/>
<path fill-rule="evenodd" clip-rule="evenodd" d="M6.44583 13.8591C5.61416 14.0576 4.85916 14.5198 4.30128 15.1892L3.65097 15.9696C2.56543 17.2722 3.49174 19.2499 5.18741 19.2499H16.8139C18.5096 19.2499 19.4359 17.2722 18.3504 15.9696L17.7001 15.1892C17.1422 14.5198 16.3872 14.0576 15.5555 13.8591C15.543 13.8751 15.5305 13.891 15.518 13.9069C14.8876 14.7067 14.174 15.4291 13.4573 15.9655C12.7948 16.4613 11.9193 16.9583 11.0007 16.9583C10.082 16.9583 9.20654 16.4613 8.544 15.9655C7.82731 15.4291 7.11377 14.7067 6.48331 13.9069C6.47081 13.891 6.45832 13.8751 6.44583 13.8591Z" fill="#757185"/>
</svg>
