<svg width="19" height="19" viewBox="0 0 19 19" fill="none" xmlns="http://www.w3.org/2000/svg">
<path fill-rule="evenodd" clip-rule="evenodd" d="M6.33333 0.989746C6.66125 0.989746 6.92708 1.25558 6.92708 1.5835V2.771H12.0729V1.5835C12.0729 1.25558 12.3387 0.989746 12.6667 0.989746C12.9946 0.989746 13.2604 1.25558 13.2604 1.5835V2.82119C15.0906 3.11332 16.5066 4.6469 16.6179 6.53141H2.38206C2.49338 4.6469 3.9094 3.11331 5.73958 2.82119V1.5835C5.73958 1.25558 6.00541 0.989746 6.33333 0.989746ZM2.375 7.71891H16.625V13.4168C16.625 15.626 14.8341 17.4168 12.625 17.4168H6.375C4.16586 17.4168 2.375 15.626 2.375 13.4168V7.71891Z" fill="#757185"/>
</svg>
