<svg width="22" height="22" viewBox="0 0 22 22" fill="none" xmlns="http://www.w3.org/2000/svg">
<path fill-rule="evenodd" clip-rule="evenodd" d="M10.2497 4.88739C8.31219 3.58248 5.65192 2.98529 3.66114 2.76033C2.65473 2.64661 1.83301 3.48702 1.83301 4.52391V14.85C1.83301 15.8868 2.65473 16.7276 3.66114 16.8413C5.65192 17.0663 8.31219 17.6634 10.2497 18.9684V4.88739ZM11.7497 18.9684C12.3672 18.5524 13.0582 18.2084 13.7776 17.9254C13.7591 17.7584 13.7497 17.5886 13.7497 17.4167C13.7497 14.8854 15.8017 12.8333 18.333 12.8333C18.9849 12.8333 19.6049 12.9694 20.1663 13.2147V4.52391C20.1663 3.48702 19.3446 2.64661 18.3382 2.76033C16.3474 2.98529 13.6872 3.58248 11.7497 4.88739V18.9684ZM3.84184 7.45197C3.90524 7.04263 4.28846 6.76219 4.69779 6.82559C5.89509 7.01101 7.24457 7.32108 8.52018 7.81437C8.90651 7.96376 9.09859 8.39806 8.94919 8.78439C8.7998 9.17072 8.3655 9.3628 7.97917 9.2134C6.83071 8.76929 5.59152 8.48188 4.46822 8.30792C4.05889 8.24452 3.77845 7.8613 3.84184 7.45197ZM4.69779 10.4923C4.28846 10.4289 3.90524 10.7093 3.84184 11.1186C3.77845 11.528 4.05889 11.9112 4.46822 11.9746C5.03418 12.0622 5.63145 12.179 6.23287 12.3307C6.6345 12.432 7.04222 12.1886 7.14355 11.787C7.24488 11.3853 7.00144 10.9776 6.59981 10.8763C5.94778 10.7118 5.30423 10.5862 4.69779 10.4923ZM20.6946 16.0235C20.9376 15.7318 20.8982 15.2983 20.6065 15.0552C20.3148 14.8121 19.8813 14.8515 19.6383 15.1432L17.8739 17.2604C17.7989 17.3504 17.6682 17.3694 17.5707 17.3044L16.8811 16.8446C16.5652 16.634 16.1383 16.7194 15.9277 17.0353C15.7171 17.3513 15.8025 17.7781 16.1184 17.9887L16.808 18.4485C17.4902 18.9032 18.4054 18.7705 18.9302 18.1407L20.6946 16.0235Z" fill="#050810"/>
</svg>
