<svg width="22" height="22" viewBox="0 0 22 22" fill="none" xmlns="http://www.w3.org/2000/svg">
<path fill-rule="evenodd" clip-rule="evenodd" d="M3.66114 1.84371C5.65192 2.06866 8.31219 2.66586 10.2497 3.97077V18.0517C8.31219 16.7468 5.65192 16.1496 3.66114 15.9247C2.65473 15.8109 1.83301 14.9702 1.83301 13.9333V3.60729C1.83301 2.5704 2.65473 1.72998 3.66114 1.84371ZM13.7776 17.0088C13.0582 17.2918 12.3672 17.6358 11.7497 18.0517V3.97077C13.6872 2.66586 16.3474 2.06866 18.3382 1.84371C19.3446 1.72998 20.1663 2.5704 20.1663 3.60729V12.2981C19.6049 12.0528 18.9849 11.9167 18.333 11.9167C15.8017 11.9167 13.7497 13.9687 13.7497 16.5C13.7497 16.672 13.7591 16.8417 13.7776 17.0088ZM4.69779 5.90896C4.28846 5.84557 3.90524 6.12601 3.84184 6.53534C3.77845 6.94468 4.05889 7.3279 4.46822 7.39129C5.59152 7.56525 6.83071 7.85267 7.97917 8.29678C8.3655 8.44617 8.7998 8.2541 8.94919 7.86776C9.09859 7.48143 8.90651 7.04714 8.52018 6.89774C7.24457 6.40446 5.89509 6.09439 4.69779 5.90896ZM3.84184 10.202C3.90524 9.79268 4.28846 9.51224 4.69779 9.57563C5.30423 9.66955 5.94778 9.79515 6.59981 9.95966C7.00144 10.061 7.24488 10.4687 7.14355 10.8703C7.04222 11.272 6.6345 11.5154 6.23287 11.4141C5.63145 11.2623 5.03418 11.1456 4.46822 11.058C4.05889 10.9946 3.77845 10.6113 3.84184 10.202ZM18.333 14.4375C17.7002 14.4375 17.1872 14.9505 17.1872 15.5834C17.1872 15.9631 16.8794 16.2709 16.4997 16.2709C16.12 16.2709 15.8122 15.9631 15.8122 15.5834C15.8122 14.1912 16.9408 13.0625 18.333 13.0625C19.7252 13.0625 20.8538 14.1912 20.8538 15.5834C20.8538 16.9756 19.7252 18.1042 18.333 18.1042C17.9533 18.1042 17.6455 17.7964 17.6455 17.4167C17.6455 17.037 17.9533 16.7292 18.333 16.7292C18.9658 16.7292 19.4788 16.2162 19.4788 15.5834C19.4788 14.9505 18.9658 14.4375 18.333 14.4375ZM18.333 21.0834C18.8393 21.0834 19.2497 20.673 19.2497 20.1667C19.2497 19.6604 18.8393 19.25 18.333 19.25C17.8267 19.25 17.4163 19.6604 17.4163 20.1667C17.4163 20.673 17.8267 21.0834 18.333 21.0834Z" fill="#757185"/>
</svg>
