<svg width="111" height="89" viewBox="0 0 111 89" fill="none" xmlns="http://www.w3.org/2000/svg">
<path d="M40.177 5.80842C40.2942 5.77524 40.4142 5.75274 40.5354 5.74121C46.4716 4.53156 52.9679 4.37475 60.1811 5.67401C77.9223 8.96694 97.725 19.0473 104.468 33.0031C106.529 37.2593 107.379 41.8738 106.484 46.7348C106.17 48.3701 105.327 49.3648 105.027 51.5286C109.329 45.2564 112.016 38.0656 110.292 30.7854C106.663 15.2391 86.547 3.72507 68.2005 0.835356C43.8732 -2.9728 25.5493 6.70431 14.0801 20.4137C21.7668 13.715 30.1509 7.95307 40.177 5.80842Z" fill="#FC766A"/>
<path d="M1.60238 44.6293C1.28876 45.8613 1.01994 47.1158 0.818327 48.3254C-0.928943 58.0922 -0.12251 71.1743 5.63452 79.216C8.72584 83.5398 13.4748 87.2584 20.5536 88.3559C48.9131 92.8139 81.2602 72.8544 88.6746 67.7246C91.5419 65.7309 102.265 56.6048 105.028 51.5287L1.60238 44.6293Z" fill="#3CCDFF"/>
<path d="M105.028 51.5285C105.835 50.0182 106.409 48.3944 106.73 46.7122C107.581 41.8737 106.753 37.2367 104.714 32.9805C97.9491 19.0247 77.9224 8.69794 60.1812 5.44978C53.0129 4.12813 46.4942 4.26254 40.5356 5.51698C40.4255 5.54799 40.3132 5.57046 40.1996 5.58419C30.1715 7.71361 21.0478 12.8936 14.0802 20.4136C8.18193 27.4637 3.92052 35.734 1.60285 44.629C0.269156 50.5073 0.548469 56.5932 3.33487 62.554C18.9652 97.1641 86.3097 75.6447 105.028 51.5285Z" fill="#163CFF"/>
<path d="M18.6079 53.9761H14.4189V33.6809H18.6079V41.678H27.1203V33.6809H31.3093V53.9761H27.1427V45.755H18.6303V53.9761H18.6079Z" fill="white"/>
<path d="M43.2496 45.9565L35.8125 33.6809H40.6735L45.3776 41.79L50.1042 33.6809H54.898L47.4609 45.755V53.9761H43.272V45.9342H43.2496V45.9565Z" fill="white"/>
<path d="M71.8554 45.1276C70.5114 46.2476 68.7193 46.8076 66.4792 46.8076H63.2983V53.9535H59.1094V33.6583H66.636C68.7641 33.6583 70.5114 34.2407 71.8554 35.3832C73.2219 36.5032 73.8941 38.1161 73.8941 40.1769C73.8941 42.3275 73.2219 44.0075 71.8554 45.1276ZM66.3 37.6456H63.3207V42.9098H66.3449C68.2265 42.9098 69.705 42.0586 69.705 40.3114C69.6601 38.4521 68.2265 37.6456 66.3 37.6456Z" fill="white"/>
<path d="M92.0833 33.6809V37.6235H82.9213V41.7452H91.1199V45.6878H82.9213V50.0784H92.1282V53.9761H78.7773V33.6809H92.0833Z" fill="white"/>
</svg>
