<svg width="269" height="89" viewBox="0 0 269 89" fill="none" xmlns="http://www.w3.org/2000/svg">
<path d="M146.087 30.6394L156.561 57.996L167.035 30.6394H175.424L158.124 73.6804C155.675 79.8812 151.35 81.8613 145.775 81.9134C144.316 81.9134 142.857 81.705 141.398 81.3923L142.596 74.3057C143.534 74.6704 144.524 74.8789 145.566 74.931C148.015 74.931 149.631 74.1493 150.673 71.7524L152.445 67.5838L137.75 30.6394H146.087ZM253.846 29.7015C261.767 29.7015 268.749 33.0885 268.749 42.9368V67.1148H260.933V63.2067C258.275 66.2811 254.107 68.0527 249.365 68.0527C243.477 68.0527 236.911 64.0404 236.911 55.9638C236.911 47.5744 243.529 44.0832 249.365 44.0832C254.211 44.0832 258.327 45.6464 260.933 48.7729V43.3016C260.933 39.0809 257.494 36.4755 252.543 36.4755C248.531 36.4755 245.04 37.9866 241.913 41.0609L238.735 35.5375C242.904 31.5773 248.114 29.7015 253.846 29.7015ZM212.577 16.7266V67.1148H204.761V62.1125C201.999 65.76 197.882 68.0006 193.245 68.0006C184.022 68.0006 177.3 60.914 177.3 48.8771C177.3 37.1008 183.97 29.7015 193.245 29.7015C197.674 29.7015 201.843 31.8379 204.761 35.6939V16.7266H212.577ZM118.314 16.7266V59.3508H140.147V67.1148H109.664V16.7266H118.314ZM229.72 30.6394V67.1148H221.904V30.6394H229.72ZM252.387 49.5024C248.01 49.5024 244.727 52.0557 244.727 56.068C244.727 59.976 248.01 62.5814 252.387 62.5814C255.826 62.5814 259.161 61.3308 260.933 58.8297V53.3063C259.161 50.8051 255.826 49.5024 252.387 49.5024ZM195.485 36.736C189.337 36.736 185.377 41.7905 185.377 48.8771C185.377 55.9116 189.285 60.9661 195.485 60.9661C199.185 60.9661 202.989 58.8297 204.761 56.1201V41.6341C202.989 38.9245 199.185 36.736 195.485 36.736ZM225.812 16.5182C228.47 16.5703 230.606 18.7067 230.554 21.3642C230.554 24.0217 228.365 26.1581 225.708 26.1581C223.05 26.106 220.862 23.9175 220.862 21.26C221.018 18.6025 223.155 16.4661 225.812 16.5182Z" fill="white"/>
<path d="M45.4681 89C70.0736 89 90.0202 69.0767 90.0202 44.5C90.0202 19.9233 70.0736 0 45.4681 0C20.8627 0 0.916016 19.9233 0.916016 44.5C0.916016 69.0767 20.8627 89 45.4681 89Z" fill="#0180FF"/>
<path d="M49.1141 20.322L68.2376 64.1445C68.3418 64.4572 68.3418 64.7698 68.1334 65.0304C67.9771 65.2909 67.6644 65.4472 67.3518 65.4472H62.9226C62.2452 65.4472 61.6199 65.0304 61.3594 64.4051L45.5187 26.2622L29.6779 64.4051C29.4174 65.0304 28.7921 65.4472 28.1668 65.4472H23.6334C23.3208 65.4472 23.0081 65.2909 22.8518 65.0304C22.6955 64.7698 22.6434 64.4572 22.7476 64.1445L41.9232 20.3741C42.288 19.5403 43.1217 18.9672 44.0596 18.9672H46.9256C47.8635 18.915 48.7493 19.4882 49.1141 20.322Z" fill="#F9F9FA"/>
<path fill-rule="evenodd" clip-rule="evenodd" d="M46.4975 12.9623L45.5188 10.6057L44.54 12.9623H44.0597C40.6534 12.9623 37.7107 15.0243 36.423 17.9645C36.4232 17.9642 36.4229 17.9648 36.423 17.9645C36.4228 17.9651 36.4221 17.9667 36.4218 17.9673L17.1375 61.9859L17.0509 62.2457C16.3368 64.3879 16.7388 66.5136 17.7027 68.12C19.0945 70.4397 21.5209 71.4523 23.6335 71.4523H28.1669C31.323 71.4523 34.0698 69.4778 35.2211 66.7148L45.5188 41.919L55.8165 66.7148C57.0094 69.5778 59.8211 71.4523 62.9227 71.4523H67.3519C69.3519 71.4523 71.6332 70.5447 73.0516 68.4798C74.7413 66.1258 74.3839 63.5938 73.9345 62.2457L73.8493 61.99L54.6179 17.9203L54.6157 17.9152C53.3078 14.9257 50.2481 12.8626 46.8112 12.9623H46.4975Z" fill="white"/>
</svg>
