<svg width="130" height="89" viewBox="0 0 130 89" fill="none" xmlns="http://www.w3.org/2000/svg">
<path d="M32.6246 19.8623V53.9212C32.6246 56.9355 32.6948 58.7595 32.8351 60.5122H32.6948C31.9576 58.5048 31.0888 56.7456 29.7927 54.4554L9.64956 19.8623H0.443571V69.648H7.61626V35.5869C7.61626 32.5715 7.5461 30.7487 7.40688 28.9949H7.55474C8.29079 31.0023 9.15958 32.7604 10.4568 35.0495L30.5935 69.648H39.7023V19.8623H32.6246ZM40.148 0.511353V6.96202H0V0.511353H40.148ZM40.148 82.5493V89H0V82.5493H40.148ZM62.3039 63.1984C66.0522 60.6082 71.4257 56.3053 73.8098 53.9169C76.5198 51.2058 84.2343 44.2371 84.2343 34.3026C84.2343 24.0336 77.5429 19.3334 68.4934 19.3334C57.5239 19.3378 52.1072 26.0895 52.1072 33.8137C52.1056 35.1397 52.2706 36.4606 52.5982 37.7454L60.1141 38.4685C59.7969 37.0647 59.6323 35.6307 59.6231 34.1915C59.6231 28.4067 63.4512 25.6384 68.2441 25.6384C72.9173 25.6384 76.3763 28.2567 76.3763 34.553C76.3763 40.9519 73.2464 45.3131 68.4805 50.0845C63.4976 55.0706 55.5327 61.0194 51.696 63.7553V69.648H84.7933V63.1984H62.3039ZM114.448 36.5248C108.512 36.5248 104.274 39.2704 102.131 43.3348C102.131 33.7295 105.477 25.3686 113.431 25.3686C118.486 25.3686 120.493 28.2772 121.564 33.0464L128.927 31.5732C127.2 23.3396 121.963 19.3378 113.483 19.3378C102.829 19.3378 94.8573 27.5185 94.8573 45.8538C94.8573 62.13 101.504 70.1747 112.957 70.1747C122.421 70.1747 129.51 63.7121 129.51 53.0632C129.51 44.7433 125.074 36.5248 114.448 36.5248ZM112.976 64.1589C107.102 64.1589 103.036 58.7627 102.332 51.5976C104.116 45.4858 108.072 42.4412 112.749 42.4412C118.762 42.4412 122.154 46.8813 122.154 53.1938C122.154 59.9693 118.286 64.1589 112.976 64.1589Z" fill="white"/>
</svg>
