<svg width="288" height="89" viewBox="0 0 288 89" fill="none" xmlns="http://www.w3.org/2000/svg">
<path d="M59.4555 6.33722C54.0331 11.7521 52.0381 19.6594 53.6527 27.8759C53.9638 29.4608 55.2053 30.7004 56.7926 31.0111C65.0218 32.6231 72.9421 30.6312 78.3645 25.2171C83.787 19.8022 85.782 11.8941 84.1674 3.67837C83.8563 2.09351 82.6155 0.853894 81.0275 0.543253C79.1763 0.180348 77.342 0 75.5468 0C69.3627 0.000736115 63.6586 2.14136 59.4555 6.33722ZM61.1063 23.5689C60.8239 18.9388 62.2143 14.8268 65.0859 11.9589C67.9583 9.09176 72.0765 7.70418 76.7138 7.98538C76.9962 12.6155 75.6058 16.7275 72.7342 19.5954C70.1051 22.2204 66.4314 23.605 62.2711 23.605C61.887 23.605 61.4985 23.5932 61.1063 23.5689ZM0 46.6962C0 70.0524 18.8139 89 42.0387 89C65.2643 89 84.0782 70.0524 84.0782 46.6962C84.0782 42.0145 83.3225 37.511 81.9269 33.3004C74.6024 39.1738 64.9134 41.168 55.1721 39.2592C50.2274 38.2905 46.362 34.431 45.3918 29.4939C43.6762 20.7592 45.1109 12.0671 49.6811 5.0895C47.2032 4.63164 44.6486 4.3924 42.0387 4.3924C18.8139 4.3924 0 23.34 0 46.6962ZM53.503 58.3018C55.0512 56.7427 57.5719 56.7331 59.1326 58.2797C60.6934 59.8263 60.703 62.3431 59.1548 63.9014C54.6487 68.4344 48.5442 71.0329 42.0387 71.0329C35.5532 71.0329 29.4649 68.4506 24.9626 63.9412C23.4106 62.3858 23.4143 59.869 24.9721 58.3187C26.5285 56.7685 29.0491 56.7721 30.6018 58.3276C33.6267 61.3574 37.6934 63.0836 42.0387 63.0836C46.3974 63.0836 50.4758 61.3471 53.503 58.3018ZM163.412 67.1492H172.406V9.2169H163.412V67.1492ZM261.027 34.4745C258.491 30.3095 254.18 27.9878 249.006 27.9878C244.246 27.9878 240.701 29.7037 238.464 32.7814V28.6503H229.911V67.1492H238.905V45.2129C238.905 40.0542 242.257 36.3795 247.163 36.3795C251.521 36.3795 254.388 39.7554 254.388 45.1393V67.1492H263.456V43.8143C263.973 39.335 266.934 36.3795 271.272 36.3795C276.025 36.3795 278.791 39.614 278.791 45.1393V67.1492H287.859V43.7216C287.792 34.2853 281.989 27.9878 273.336 27.9878C267.878 27.9878 263.565 30.4185 261.027 34.4745ZM122.716 33.1237V28.6503H114.163V85.9201H123.158V63.353C125.61 66.1399 129.842 67.8853 134.806 67.8853C145.805 67.8853 153.384 59.9492 153.384 47.9366C153.384 35.9717 145.779 27.9878 134.806 27.9878C129.575 27.9878 125.164 29.9488 122.716 33.1237ZM123.158 48.9678V46.9796C123.158 39.974 127.196 35.8635 133.478 35.8635C139.967 35.8635 144.243 40.412 144.243 47.9366C144.243 55.4766 139.95 60.0825 133.478 60.0825C127.222 60.0825 123.158 55.9249 123.158 48.9678ZM208.531 28.6503V50.5866C208.531 55.6466 205.393 59.4199 200.716 59.4199C196.01 59.4199 193.418 56.3879 193.418 51.0282V28.6503H184.423V52.2804C184.423 61.7012 189.976 67.8853 198.652 67.8853C203.393 67.8853 206.99 66.0391 208.974 63.1889V67.1492H217.526V28.6503H208.531Z" fill="#143647"/>
</svg>
