<svg width="168" height="50" viewBox="0 0 168 50" fill="none" xmlns="http://www.w3.org/2000/svg">
<path fill-rule="evenodd" clip-rule="evenodd" d="M49.0912 0V49.0912H0V0H49.0912Z" fill="black"/>
<path fill-rule="evenodd" clip-rule="evenodd" d="M1.2207 1.21942H47.8721V47.8699H1.2207V1.21942Z" fill="#FFF22D"/>
<path fill-rule="evenodd" clip-rule="evenodd" d="M45.8799 15.6777L44.1208 14.0713L36.9299 21.0323L34.9417 18.967L35.0181 14.5301L33.2589 16.3656V21.8737L30.407 24.7356L44.6048 38.9325L38.8668 44.7469L24.6636 30.497L10.4612 44.7469L4.7241 38.9325L18.921 24.7356L16.0682 21.8737V16.3656L14.309 14.5301L14.3854 18.967L12.3964 21.0323L5.20542 14.0713L3.44629 15.6777C3.73274 8.19044 9.68719 2.38326 15.3031 6.34511L22.6467 13.7659L20.963 15.2952L24.6618 18.9939L28.3605 15.2952L26.6777 13.7659L34.0213 6.34511C39.639 2.38236 45.5935 8.19044 45.8799 15.6777ZM62.9513 2.02856V18.6159H61.1706V0.22184H66.1121C67.1987 0.22184 68.0697 0.303554 68.7333 0.466985C69.378 0.624278 69.9877 0.900494 70.531 1.28145C71.2647 1.79419 71.8421 2.48024 72.2686 3.34229C72.6961 4.20075 72.9071 5.1104 72.9071 6.07212C72.9071 7.49541 72.4841 8.71935 71.6391 9.74573C70.7897 10.7757 69.7328 11.3369 68.4612 11.4276L72.9071 18.615H70.7591L65.3004 9.74573H67.0424C68.2062 9.74573 69.1509 9.4054 69.8791 8.72384C70.6074 8.04228 70.9747 7.16316 70.9747 6.09368C70.9747 5.44714 70.8624 4.85627 70.6379 4.32557C70.4156 3.79439 70.0768 3.31996 69.6465 2.93731C69.2723 2.60381 68.8247 2.36324 68.34 2.23509C67.8309 2.0977 66.9212 2.02856 65.6147 2.02856H62.9513ZM86.8176 11.5794C86.8176 10.1049 86.2914 8.81992 85.2407 7.7199C84.1874 6.62078 82.9716 6.07302 81.6004 6.07302C80.1088 6.07302 78.8418 6.62078 77.7938 7.7199C76.7459 8.81992 76.2197 10.1821 76.2197 11.8075C76.2197 13.3565 76.7414 14.6621 77.7849 15.7271C78.8283 16.7921 80.0837 17.3264 81.5492 17.3264C82.9635 17.3264 84.1964 16.7661 85.2443 15.6409C86.2913 14.5158 86.8176 13.1616 86.8176 11.5794ZM86.8176 16.4168C86.2617 17.2187 85.511 17.8436 84.5618 18.3007C83.6047 18.756 82.5569 18.9886 81.4971 18.9814C79.4623 18.9814 77.7633 18.2836 76.4092 16.89C75.0505 15.4972 74.3744 13.7776 74.3744 11.7285C74.3744 9.65054 75.0685 7.91207 76.4523 6.51123C77.8361 5.11399 79.57 4.41537 81.6524 4.41537C82.7219 4.41537 83.7007 4.63088 84.5933 5.0664C85.4794 5.49663 86.244 6.14144 86.8176 6.94226V4.71709H88.5605V18.6141H86.8176V16.4168ZM93.1824 3.08906H91.4026V0.22184H93.1824V3.08906ZM91.4017 18.6159V4.71888H93.1815V18.6159H91.4017ZM98.5361 18.6159H96.8066V6.27058H94.9496V4.71798H96.7294V4.33814C96.7294 2.86816 97.1047 1.77713 97.85 1.07042C98.5918 0.362821 99.7394 0.00991821 101.278 0.00991821H101.442V1.61369C100.374 1.63076 99.6181 1.84178 99.1745 2.25216C98.731 2.65714 98.5118 3.35576 98.5118 4.33814V4.71798H101.443V6.27058H98.537L98.5361 18.6159ZM105.646 18.6159H103.917V6.27058H102.06V4.71798H103.84V4.33814C103.84 2.86816 104.215 1.77713 104.96 1.07042C105.702 0.362821 106.85 0.00991821 108.389 0.00991821H108.552V1.61369C107.484 1.63076 106.728 1.84178 106.285 2.25216C105.841 2.65714 105.62 3.35576 105.62 4.33814V4.71798H108.553V6.27058H105.647L105.646 18.6159ZM123.911 12.2349H111.369C111.476 13.748 112.024 14.9683 113.01 15.904C113.995 16.8361 115.222 17.3013 116.697 17.3013C117.74 17.3013 118.68 17.0301 119.514 16.4913C120.345 15.948 120.992 15.1973 121.444 14.2311H123.466C122.828 15.7702 121.926 16.9475 120.771 17.7718C119.611 18.5952 118.27 19.0092 116.749 19.0092C114.727 19.0092 113.015 18.289 111.617 16.8487C110.221 15.4083 109.521 13.6753 109.521 11.6575C109.521 9.54009 110.207 7.79354 111.575 6.41426C112.94 5.02958 114.691 4.33994 116.821 4.33994C118.913 4.33994 120.616 5.06011 121.931 6.49597C123.25 7.93631 123.909 9.80769 123.909 12.1092V12.2349H123.911ZM121.942 10.7299C121.605 9.16923 120.984 7.99199 120.083 7.20267C119.181 6.41336 118.008 6.02094 116.561 6.02094C115.214 6.02094 114.073 6.44389 113.136 7.29337C112.201 8.14285 111.631 9.28507 111.421 10.7299H121.942ZM127.766 3.08906H125.986V0.22184H127.766V3.08906ZM125.986 18.6159V4.71888H127.766V18.6159H125.986ZM129.762 14.2437H131.595V14.2958C131.595 15.1623 131.845 15.878 132.342 16.4473C132.837 17.0166 133.454 17.3013 134.187 17.3013C134.885 17.3013 135.462 17.0813 135.929 16.6466C136.39 16.2066 136.623 15.6544 136.623 14.9908C136.623 14.3272 136.44 13.792 136.074 13.387C135.708 12.982 135.045 12.6022 134.083 12.2484C132.543 11.7006 131.533 11.1403 131.065 10.571C130.595 9.99716 130.358 9.22939 130.358 8.26856C130.358 7.18202 130.75 6.25891 131.538 5.50461C132.324 4.74582 133.28 4.36598 134.397 4.36598C135.588 4.36598 136.528 4.70182 137.226 5.3753C137.924 6.05237 138.299 6.99254 138.35 8.19493H136.446C136.402 7.53582 136.195 7.02667 135.82 6.66479C135.445 6.30291 134.933 6.12151 134.285 6.12151C133.703 6.12151 133.22 6.31458 132.833 6.70699C132.443 7.0994 132.251 7.587 132.251 8.16889C132.251 8.58195 132.332 8.92768 132.492 9.21233C132.652 9.4925 132.915 9.74663 133.287 9.97561C133.623 10.1866 134.115 10.3896 134.762 10.5835C135.404 10.7775 135.833 10.9203 136.054 11.011C136.921 11.3818 137.559 11.873 137.97 12.4899C138.378 13.1068 138.582 13.8863 138.582 14.8399C138.582 16.0351 138.163 17.0265 137.331 17.8113C136.498 18.5916 135.439 18.9841 134.162 18.9841C132.856 18.9841 131.807 18.5575 131.014 17.7036C130.22 16.8433 129.806 15.6921 129.762 14.2437ZM154.344 12.2349H141.8C141.909 13.748 142.456 14.9683 143.444 15.904C144.426 16.8361 145.655 17.3013 147.13 17.3013C148.173 17.3013 149.113 17.0301 149.945 16.4913C150.778 15.948 151.425 15.1973 151.876 14.2311H153.9C153.261 15.7702 152.36 16.9475 151.204 17.7718C150.045 18.5952 148.703 19.0092 147.181 19.0092C145.159 19.0092 143.447 18.289 142.051 16.8487C140.653 15.4083 139.955 13.6753 139.955 11.6575C139.955 9.54009 140.641 7.79354 142.007 6.41426C143.373 5.02958 145.126 4.33994 147.255 4.33994C149.345 4.33994 151.05 5.06011 152.363 6.49597C153.684 7.93631 154.343 9.80769 154.343 12.1092L154.344 12.2349ZM152.373 10.7299C152.038 9.16923 151.416 7.99199 150.516 7.20267C149.614 6.41336 148.441 6.02094 146.992 6.02094C145.647 6.02094 144.505 6.44389 143.569 7.29337C142.635 8.14285 142.064 9.28507 141.854 10.7299H152.373ZM156.392 4.71888H158.12V6.30201C158.669 5.66804 159.302 5.20199 160.023 4.90027C160.742 4.59406 161.567 4.4432 162.492 4.4432C163.51 4.4432 164.417 4.63268 165.214 5.01162C165.983 5.36773 166.637 5.93238 167.102 6.64144C167.42 7.13712 167.65 7.719 167.793 8.39248C167.93 9.06057 168 10.0474 168 11.354V18.615H166.244V10.8368C166.244 9.19347 165.93 8.00367 165.304 7.26194C164.674 6.52022 163.67 6.14935 162.291 6.14935C161.481 6.14935 160.773 6.31278 160.16 6.63605C159.557 6.95424 159.057 7.43724 158.717 8.02881C158.488 8.43051 158.331 8.86989 158.256 9.32637C158.164 9.80948 158.121 10.6545 158.121 11.8569V18.6132H156.393L156.392 4.71888ZM64.0055 39.5081L62.8085 46.4467H65.3489C66.8404 46.4467 67.988 46.1666 68.7971 45.6017C69.6061 45.0369 70.1144 44.1668 70.3155 42.9976C70.5185 41.8258 70.3066 40.9547 69.6816 40.3773C69.0566 39.7981 68.0113 39.509 66.5459 39.509L64.0055 39.5081ZM65.3758 31.5628L64.3081 37.7544H65.3947C67.1798 37.7544 68.4729 37.5092 69.2685 37.0162C70.0659 36.5214 70.5625 35.7151 70.7555 34.5944C70.9369 33.542 70.725 32.7742 70.118 32.292C69.5083 31.8053 68.446 31.5637 66.9329 31.5637L65.3758 31.5628ZM63.9498 29.8064H67.3738C69.4562 29.8064 70.9154 30.1988 71.7577 30.9881C72.6 31.7775 72.8766 33.0023 72.5883 34.6707C72.4437 35.513 72.1555 36.2314 71.7245 36.8312C71.2889 37.4311 70.7133 37.9169 69.9923 38.2976C70.9127 38.7116 71.5592 39.289 71.9256 40.0343C72.2929 40.7814 72.3863 41.692 72.1995 42.7686C71.8771 44.64 71.1228 46.0112 69.942 46.8867C68.7602 47.7623 67.0586 48.2023 64.8424 48.2023H60.7764L63.9498 29.8064ZM73.4962 48.2014H71.5898L81.9003 29.8064H84.0734L88.0137 48.2014H86.083L84.8797 42.4274H76.6911L73.4962 48.2014ZM84.5304 40.7724L82.6357 31.5359L77.6053 40.7724H84.5304ZM101.984 46.0022L104.562 29.8064H106.357L103.182 48.2014H101.009L93.7131 31.9795L91.117 48.2014H89.3373L92.5098 29.8064H94.6847L101.984 46.0022ZM109.379 42.5262L108.4 48.2014H106.619L109.793 29.8064H111.573L109.81 40.0244L120.089 29.8064H122.236L113.273 38.7026L118.938 48.2014H116.714L111.88 40.0514L109.379 42.5262Z" fill="black"/>
<mask id="mask0_193_2761" style="mask-type:alpha" maskUnits="userSpaceOnUse" x="3" y="0" width="166" height="49">
<path fill-rule="evenodd" clip-rule="evenodd" d="M45.8809 15.6778L44.1218 14.0713L36.9308 21.0324L34.9427 18.967L35.019 14.5301L33.2599 16.3656V21.8738L30.408 24.7356L44.6058 38.9325L38.8678 44.7469L24.6645 30.497L10.4622 44.7469L4.72508 38.9325L18.922 24.7356L16.0692 21.8738V16.3656L14.31 14.5301L14.3864 18.967L12.3973 21.0324L5.20639 14.0713L3.44727 15.6778C3.73372 8.19047 9.68817 2.38329 15.3041 6.34514L22.6477 13.766L20.964 15.2952L24.6627 18.994L28.3615 15.2952L26.6787 13.766L34.0223 6.34514C39.64 2.38239 45.5945 8.19047 45.8809 15.6778ZM62.9523 2.02859V18.6159H61.1716V0.22187H66.1131C67.1997 0.22187 68.0707 0.303584 68.7343 0.467015C69.379 0.624309 69.9887 0.900524 70.532 1.28148C71.2657 1.79422 71.8431 2.48027 72.2696 3.34232C72.697 4.20078 72.9081 5.11043 72.9081 6.07215C72.9081 7.49544 72.4851 8.71938 71.6401 9.74576C70.7906 10.7757 69.7337 11.337 68.4622 11.4277L72.9081 18.615H70.7601L65.3013 9.74576H67.0434C68.2072 9.74576 69.1518 9.40543 69.8801 8.72387C70.6084 8.04231 70.9756 7.16319 70.9756 6.09371C70.9756 5.44717 70.8634 4.8563 70.6389 4.3256C70.4166 3.79443 70.0778 3.31999 69.6475 2.93734C69.2732 2.60385 68.8256 2.36327 68.341 2.23512C67.8318 2.09773 66.9222 2.02859 65.6156 2.02859H62.9523ZM86.8185 11.5794C86.8185 10.1049 86.2923 8.81995 85.2417 7.71993C84.1884 6.62082 82.9725 6.07305 81.6013 6.07305C80.1098 6.07305 78.8428 6.62082 77.7948 7.71993C76.7469 8.81995 76.2207 10.1822 76.2207 11.8075C76.2207 13.3565 76.7424 14.6622 77.7858 15.7271C78.8293 16.7921 80.0847 17.3264 81.5501 17.3264C82.9645 17.3264 84.1974 16.7661 85.2453 15.6409C86.2923 14.5158 86.8185 13.1616 86.8185 11.5794ZM86.8185 16.4168C86.2627 17.2187 85.512 17.8437 84.5628 18.3007C83.6057 18.756 82.5579 18.9887 81.4981 18.9814C79.4633 18.9814 77.7643 18.2837 76.4102 16.89C75.0515 15.4973 74.3753 13.7777 74.3753 11.7285C74.3753 9.65058 75.0695 7.9121 76.4533 6.51126C77.837 5.11402 79.571 4.4154 81.6534 4.4154C82.7229 4.4154 83.7017 4.63091 84.5943 5.06643C85.4804 5.49666 86.245 6.14147 86.8185 6.94229V4.71712H88.5615V18.6141H86.8185V16.4168ZM93.1834 3.08909H91.4036V0.22187H93.1834V3.08909ZM91.4027 18.6159V4.71891H93.1825V18.6159H91.4027ZM98.5371 18.6159H96.8076V6.27061H94.9506V4.71801H96.7303V4.33817C96.7303 2.86819 97.1057 1.77716 97.851 1.07045C98.5927 0.362851 99.7404 0.00994873 101.279 0.00994873H101.443V1.61373C100.375 1.63079 99.6191 1.84181 99.1755 2.25219C98.7319 2.65717 98.5128 3.35579 98.5128 4.33817V4.71801H101.444V6.27061H98.538L98.5371 18.6159ZM105.647 18.6159H103.918V6.27061H102.061V4.71801H103.84V4.33817C103.84 2.86819 104.216 1.77716 104.961 1.07045C105.703 0.362851 106.85 0.00994873 108.39 0.00994873H108.553V1.61373C107.485 1.63079 106.729 1.84181 106.286 2.25219C105.842 2.65717 105.621 3.35579 105.621 4.33817V4.71801H108.554V6.27061H105.648L105.647 18.6159ZM123.912 12.2349H111.37C111.477 13.748 112.025 14.9684 113.011 15.904C113.996 16.8361 115.223 17.3013 116.698 17.3013C117.741 17.3013 118.681 17.0301 119.515 16.4913C120.346 15.9481 120.993 15.1973 121.445 14.2311H123.467C122.829 15.7702 121.927 16.9475 120.772 17.7718C119.612 18.5953 118.271 19.0092 116.75 19.0092C114.727 19.0092 113.016 18.2891 111.618 16.8487C110.221 15.4084 109.522 13.6753 109.522 11.6575C109.522 9.54012 110.208 7.79357 111.576 6.41429C112.941 5.02961 114.692 4.33997 116.822 4.33997C118.914 4.33997 120.617 5.06014 121.932 6.496C123.251 7.93634 123.91 9.80772 123.91 12.1092V12.2349H123.912ZM121.943 10.7299C121.606 9.16926 120.985 7.99202 120.084 7.2027C119.182 6.41339 118.009 6.02097 116.562 6.02097C115.215 6.02097 114.074 6.44392 113.137 7.2934C112.202 8.14288 111.632 9.2851 111.422 10.7299H121.943ZM127.767 3.08909H125.987V0.22187H127.767V3.08909ZM125.987 18.6159V4.71891H127.767V18.6159H125.987ZM129.763 14.2437H131.596V14.2958C131.596 15.1623 131.846 15.878 132.343 16.4473C132.838 17.0166 133.455 17.3013 134.188 17.3013C134.886 17.3013 135.463 17.0813 135.929 16.6467C136.391 16.2067 136.624 15.6544 136.624 14.9908C136.624 14.3272 136.441 13.792 136.075 13.387C135.709 12.9821 135.046 12.6022 134.084 12.2484C132.544 11.7006 131.534 11.1403 131.066 10.571C130.596 9.99719 130.359 9.22942 130.359 8.26859C130.359 7.18205 130.751 6.25894 131.539 5.50464C132.325 4.74585 133.28 4.36601 134.398 4.36601C135.589 4.36601 136.529 4.70185 137.227 5.37533C137.925 6.0524 138.3 6.99257 138.351 8.19496H136.447C136.403 7.53585 136.196 7.0267 135.821 6.66482C135.445 6.30294 134.934 6.12154 134.286 6.12154C133.704 6.12154 133.221 6.31461 132.834 6.70702C132.444 7.09944 132.252 7.58703 132.252 8.16892C132.252 8.58198 132.333 8.92771 132.493 9.21236C132.653 9.49253 132.916 9.74666 133.288 9.97564C133.624 10.1867 134.116 10.3896 134.763 10.5836C135.405 10.7775 135.834 10.9203 136.055 11.011C136.922 11.3819 137.56 11.8731 137.971 12.49C138.379 13.1069 138.583 13.8863 138.583 14.84C138.583 16.0352 138.164 17.0265 137.332 17.8113C136.499 18.5917 135.44 18.9841 134.163 18.9841C132.857 18.9841 131.808 18.5576 131.015 17.7036C130.221 16.8433 129.807 15.6921 129.763 14.2437ZM154.345 12.2349H141.801C141.91 13.748 142.457 14.9684 143.445 15.904C144.427 16.8361 145.656 17.3013 147.131 17.3013C148.174 17.3013 149.114 17.0301 149.946 16.4913C150.779 15.9481 151.426 15.1973 151.877 14.2311H153.901C153.262 15.7702 152.361 16.9475 151.205 17.7718C150.046 18.5953 148.704 19.0092 147.182 19.0092C145.16 19.0092 143.448 18.2891 142.052 16.8487C140.654 15.4084 139.956 13.6753 139.956 11.6575C139.956 9.54012 140.642 7.79357 142.008 6.41429C143.374 5.02961 145.127 4.33997 147.256 4.33997C149.346 4.33997 151.051 5.06014 152.364 6.496C153.685 7.93634 154.344 9.80772 154.344 12.1092L154.345 12.2349ZM152.374 10.7299C152.039 9.16926 151.417 7.99202 150.517 7.2027C149.615 6.41339 148.442 6.02097 146.993 6.02097C145.648 6.02097 144.506 6.44392 143.57 7.2934C142.636 8.14288 142.065 9.2851 141.855 10.7299H152.374ZM156.393 4.71891H158.121V6.30204C158.67 5.66807 159.303 5.20202 160.024 4.9003C160.743 4.59409 161.567 4.44324 162.493 4.44324C163.511 4.44324 164.418 4.63271 165.215 5.01165C165.984 5.36776 166.638 5.93241 167.103 6.64147C167.421 7.13715 167.651 7.71903 167.794 8.39251C167.931 9.0606 168.001 10.0475 168.001 11.354V18.615H166.245V10.8368C166.245 9.1935 165.931 8.0037 165.305 7.26197C164.675 6.52025 163.671 6.14938 162.292 6.14938C161.482 6.14938 160.774 6.31281 160.161 6.63608C159.558 6.95427 159.058 7.43727 158.718 8.02884C158.489 8.43054 158.332 8.86992 158.257 9.32641C158.165 9.80951 158.122 10.6545 158.122 11.8569V18.6132H156.394L156.393 4.71891ZM64.0065 39.5081L62.8095 46.4468H65.3498C66.8414 46.4468 67.989 46.1666 68.798 45.6018C69.6071 45.0369 70.1154 44.1668 70.3165 42.9977C70.5195 41.8258 70.3075 40.9548 69.6825 40.3774C69.0576 39.7982 68.0123 39.509 66.5468 39.509L64.0065 39.5081ZM65.3768 31.5629L64.3091 37.7544H65.3956C67.1808 37.7544 68.4739 37.5092 69.2695 37.0163C70.0669 36.5215 70.5635 35.7151 70.7565 34.5944C70.9379 33.542 70.726 32.7742 70.119 32.292C69.5092 31.8053 68.4469 31.5638 66.9339 31.5638L65.3768 31.5629ZM63.9508 29.8064H67.3748C69.4572 29.8064 70.9164 30.1989 71.7587 30.9882C72.601 31.7775 72.8775 33.0023 72.5893 34.6708C72.4447 35.5131 72.1565 36.2314 71.7254 36.8313C71.2899 37.4311 70.7143 37.9169 69.9932 38.2977C70.9137 38.7116 71.5602 39.289 71.9266 40.0343C72.2938 40.7815 72.3872 41.692 72.2005 42.7687C71.8781 44.64 71.1238 46.0112 69.943 46.8868C68.7612 47.7623 67.0596 48.2023 64.8434 48.2023H60.7774L63.9508 29.8064ZM73.4971 48.2014H71.5907L81.9012 29.8064H84.0743L88.0146 48.2014H86.084L84.8807 42.4274H76.6921L73.4971 48.2014ZM84.5314 40.7725L82.6367 31.5359L77.6063 40.7725H84.5314ZM101.985 46.0023L104.563 29.8064H106.358L103.183 48.2014H101.01L93.7141 31.9795L91.118 48.2014H89.3382L92.5108 29.8064H94.6857L101.985 46.0023ZM109.38 42.5262L108.401 48.2014H106.62L109.794 29.8064H111.574L109.811 40.0245L120.09 29.8064H122.237L113.274 38.7026L118.939 48.2014H116.715L111.881 40.0514L109.38 42.5262Z" fill="black"/>
</mask>
<g mask="url(#mask0_193_2761)">
<rect x="55.5449" y="-30.2515" width="133.071" height="120.47" fill="white"/>
</g>
</svg>
