<svg width="22" height="22" viewBox="0 0 22 22" fill="none" xmlns="http://www.w3.org/2000/svg">
<path fill-rule="evenodd" clip-rule="evenodd" d="M15.3332 1.83333H6.6665C5.00965 1.83333 3.6665 3.17647 3.6665 4.83333V11.592C4.39629 10.9388 5.36002 10.5417 6.4165 10.5417H18.3332V4.83333C18.3332 3.17647 16.99 1.83333 15.3332 1.83333ZM7.33317 3.89583C6.95347 3.89583 6.64567 4.20363 6.64567 4.58333C6.64567 4.96302 6.95347 5.27083 7.33317 5.27083H14.6665C15.0462 5.27083 15.354 4.96302 15.354 4.58333C15.354 4.20363 15.0462 3.89583 14.6665 3.89583H7.33317ZM6.6456 7.79167C6.6456 7.41197 6.9534 7.10417 7.3331 7.10417H10.9998C11.3795 7.10417 11.6873 7.41197 11.6873 7.79167C11.6873 8.17136 11.3795 8.47917 10.9998 8.47917H7.3331C6.9534 8.47917 6.6456 8.17136 6.6456 7.79167ZM6.4165 11.9167H18.3332V14.4167C18.3332 15.8295 17.3565 17.0142 16.0415 17.3326V14.6667C16.0415 13.9073 15.4259 13.2917 14.6665 13.2917H10.9998C10.2404 13.2917 9.62484 13.9073 9.62484 14.6667V17.4167H6.4165C4.89772 17.4167 3.6665 16.1854 3.6665 14.6667C3.6665 13.1479 4.89772 11.9167 6.4165 11.9167ZM10.9998 14.6667H14.6665V20.1667L12.8332 18.3333L10.9998 20.1667V14.6667Z" fill="white"/>
</svg>
