<svg width="61" height="61" viewBox="0 0 61 61" fill="none" xmlns="http://www.w3.org/2000/svg">
<path d="M35.1195 25.8418L36.381 26.6535L35.1195 25.8418C34.7272 26.4516 34.2581 27.0494 33.786 27.6361C33.7857 27.6364 33.7854 27.6368 33.7851 27.6372L33.5314 27.9516L33.5308 27.9524L33.5189 27.9671C33.1347 28.4426 32.7537 28.9143 32.3978 29.4034C31.5313 30.5942 30.9062 31.7708 30.9062 33.0416V34.3125C30.9062 34.5368 30.7244 34.7187 30.5 34.7187C30.2756 34.7187 30.0938 34.5368 30.0938 34.3125V33.0416C30.0938 31.5037 30.8495 30.1502 31.7408 28.9254C32.1104 28.4173 32.52 27.9102 32.9183 27.4175L32.919 27.4166L33.1506 27.1297L33.1521 27.1279C33.6237 26.5417 34.0691 25.9728 34.4363 25.4022C34.9052 24.6735 35.1771 23.8065 35.1771 22.875C35.1771 20.2919 33.0831 18.1979 30.5 18.1979C27.9169 18.1979 25.8229 20.2919 25.8229 22.875C25.8229 23.0993 25.641 23.2812 25.4167 23.2812C25.1923 23.2812 25.0104 23.0993 25.0104 22.875C25.0104 19.8432 27.4682 17.3854 30.5 17.3854C33.5318 17.3854 35.9896 19.8432 35.9896 22.875C35.9896 23.9671 35.6702 24.986 35.1195 25.8418ZM36.5471 5.24457C32.8068 3.02956 28.1932 3.02956 24.4529 5.24457L12.1434 12.5343C8.4078 14.7465 6.125 18.821 6.125 23.2103V37.7897C6.125 42.179 8.4078 46.2535 12.1434 48.4657L24.4529 55.7554C28.1932 57.9704 32.8068 57.9704 36.5471 55.7554L48.8566 48.4657C52.5922 46.2535 54.875 42.179 54.875 37.7897V23.2103C54.875 18.821 52.5922 14.7465 48.8566 12.5343L36.5471 5.24457ZM30.5 40.2604C30.7244 40.2604 30.9062 40.4423 30.9062 40.6666V43.2083C30.9062 43.4327 30.7244 43.6146 30.5 43.6146C30.2756 43.6146 30.0938 43.4327 30.0938 43.2083V40.6666C30.0938 40.4423 30.2756 40.2604 30.5 40.2604Z" fill="white" stroke="#050810" stroke-width="3"/>
</svg>
