<svg width="434" height="264" viewBox="0 0 434 264" fill="none" xmlns="http://www.w3.org/2000/svg">
<path d="M428.333 3C428.333 4.47276 429.527 5.66667 431 5.66667C432.473 5.66667 433.667 4.47276 433.667 3C433.667 1.52724 432.473 0.333333 431 0.333333C429.527 0.333333 428.333 1.52724 428.333 3ZM0.333333 261C0.333333 262.473 1.52724 263.667 3 263.667C4.47276 263.667 5.66667 262.473 5.66667 261C5.66667 259.527 4.47276 258.333 3 258.333C1.52724 258.333 0.333333 259.527 0.333333 261ZM431 2.5H428.933V3.5H431V2.5ZM375.433 56V208H376.433V56H375.433ZM322.933 260.5H3V261.5H322.933V260.5ZM375.433 208C375.433 236.995 351.928 260.5 322.933 260.5V261.5C352.48 261.5 376.433 237.547 376.433 208H375.433ZM428.933 2.5C399.386 2.5 375.433 26.4528 375.433 56H376.433C376.433 27.0051 399.938 3.5 428.933 3.5V2.5Z" fill="#252134"/>
</svg>
