<svg width="322" height="152" viewBox="0 0 322 152" fill="none" xmlns="http://www.w3.org/2000/svg">
<path d="M0.333333 3C0.333333 4.47276 1.52724 5.66667 3 5.66667C4.47276 5.66667 5.66667 4.47276 5.66667 3C5.66667 1.52724 4.47276 0.333333 3 0.333333C1.52724 0.333333 0.333333 1.52724 0.333333 3ZM316.333 149C316.333 150.473 317.527 151.667 319 151.667C320.473 151.667 321.667 150.473 321.667 149C321.667 147.527 320.473 146.333 319 146.333C317.527 146.333 316.333 147.527 316.333 149ZM34 34.5V51.1489H35V34.5H34ZM82.6489 99.7979H269.298V98.7979H82.6489V99.7979ZM269.298 99.7979C296.471 99.7979 318.5 121.826 318.5 149H319.5C319.5 121.274 297.024 98.7979 269.298 98.7979V99.7979ZM34 51.1489C34 78.017 55.7809 99.7979 82.6489 99.7979V98.7979C56.3332 98.7979 35 77.4647 35 51.1489H34ZM3 3.5C20.1208 3.5 34 17.3792 34 34.5H35C35 16.8269 20.6731 2.5 3 2.5V3.5Z" fill="#252134"/>
</svg>
