<svg width="22" height="22" viewBox="0 0 22 22" fill="none" xmlns="http://www.w3.org/2000/svg">
<path d="M2.78023 8.02083L19.2199 8.02083C20.155 8.02083 20.5222 6.78203 19.7441 6.25221L12.0485 1.01177C11.4136 0.57941 10.5865 0.57941 9.95154 1.01177L2.25597 6.2522C1.47792 6.78203 1.84513 8.02083 2.78023 8.02083Z" fill="#AC6AFF"/>
<path d="M5.04171 9.39583H7.79171V13.9792H5.04171V9.39583Z" fill="#AC6AFF"/>
<path d="M16.9584 9.39583H14.2084V13.9792H16.9584V9.39583Z" fill="#AC6AFF"/>
<path d="M9.62504 9.39583H12.375V13.9792H9.62504V9.39583Z" fill="#AC6AFF"/>
<path d="M18.5867 15.8609C18.4315 15.5503 18.1141 15.3542 17.7668 15.3542L4.23324 15.3542C3.88603 15.3542 3.56862 15.5503 3.41335 15.8609L2.49668 17.6942C2.19193 18.3037 2.63514 19.0208 3.31657 19.0208H18.6835C19.3649 19.0208 19.8081 18.3037 19.5034 17.6942L18.5867 15.8609Z" fill="#AC6AFF"/>
</svg>
