<svg width="22" height="22" viewBox="0 0 22 22" fill="none" xmlns="http://www.w3.org/2000/svg">
<path fill-rule="evenodd" clip-rule="evenodd" d="M16.1667 2.75C18.023 2.75 19.584 4.01452 20.0353 5.72917L1.96481 5.72917C2.41606 4.01452 3.97704 2.75 5.83337 2.75H16.1667ZM20.1667 9.39583V7.10417H1.83337V9.39583L20.1667 9.39583ZM20.1667 10.7708H1.83337V15.25C1.83337 17.4591 3.62424 19.25 5.83338 19.25H16.1667C18.3758 19.25 20.1667 17.4591 20.1667 15.25V10.7708ZM5.50004 16.5C6.0063 16.5 6.41671 16.0896 6.41671 15.5833C6.41671 15.0771 6.0063 14.6667 5.50004 14.6667C4.99378 14.6667 4.58337 15.0771 4.58337 15.5833C4.58337 16.0896 4.99378 16.5 5.50004 16.5Z" fill="#AC6AFF"/>
</svg>
