<svg width="22" height="22" viewBox="0 0 22 22" fill="none" xmlns="http://www.w3.org/2000/svg">
<path fill-rule="evenodd" clip-rule="evenodd" d="M11 7.33333C12.2657 7.33333 13.2917 6.30732 13.2917 5.04167C13.2917 3.77601 12.2657 2.75 11 2.75C9.73439 2.75 8.70837 3.77601 8.70837 5.04167C8.70837 6.30732 9.73439 7.33333 11 7.33333ZM8.77312 18.1912L5.36408 13.9759C4.85871 13.351 4.58337 12.5746 4.58337 11.7743V11.6162C4.58337 9.75711 6.10693 8.25 7.98633 8.25C8.88884 8.25 9.7544 8.60466 10.3926 9.23595L11 9.83686L11.6075 9.23595C12.2457 8.60465 13.1112 8.25 14.0138 8.25C15.8932 8.25 17.4167 9.75711 17.4167 11.6162V11.7743C17.4167 12.5746 17.1414 13.351 16.636 13.9759L13.227 18.1912C12.0853 19.6029 9.91479 19.6029 8.77312 18.1912Z" fill="#AC6AFF"/>
</svg>
