<svg width="164" height="25" viewBox="0 0 164 25" fill="none" xmlns="http://www.w3.org/2000/svg">
<path d="M58.6629 17.6482L57.9615 16.2936H51.0209L50.3194 17.6482H46L52.3315 5.35183H56.6509L62.9824 17.6482H58.6629ZM56.3555 13.2152L54.4727 9.53857L52.5714 13.2152H56.3555Z" fill="white"/>
<path d="M74.4814 17.6658L72.7831 14.5873H68.0207V17.6658H64.0889V5.35183H73.946C76.6226 5.35183 78.8008 7.41001 78.8008 9.96076C78.8008 11.5088 77.9886 12.8809 76.7518 13.7253L78.93 17.6658H74.4814ZM68.0207 8.43031V11.5088H73.2261C74.1306 11.5088 74.8505 10.8051 74.8505 9.96076C74.8505 9.11637 74.1306 8.43031 73.2261 8.43031H68.0207Z" fill="white"/>
<path d="M84.5329 14.5873H93.8732V17.6658H80.6011V5.35183H93.8732V8.43031H84.5329V9.96076H93.1533V13.0392H84.5329V14.5873Z" fill="white"/>
<path d="M117.984 5C123.356 5 126.235 6.70636 126.235 11.4912C126.235 16.6279 123.356 18 117.984 18H103.623C98.5834 18 95.3716 16.6279 95.3716 11.4912C95.3716 6.70636 98.2327 5 103.623 5H117.984ZM117.984 14.9215C120.476 14.9215 121.916 14.2355 121.916 11.4912C121.916 8.76455 120.531 8.07848 117.984 8.07848H103.623C101.094 8.07848 99.6725 8.76455 99.6725 11.4912C99.6725 14.2355 101.094 14.9215 103.623 14.9215H117.984Z" fill="white"/>
<path d="M141.099 11.1922C142.058 11.8254 142.705 12.8985 142.705 14.1123C142.705 16.065 141.025 17.6658 138.976 17.6658L127.993 17.6482V5.33424L138.256 5.35183C140.305 5.35183 141.985 6.93505 141.985 8.88769C141.985 9.76725 141.652 10.5765 141.099 11.1922ZM137.13 8.43031H131.924V10.1367H137.13C137.628 10.1367 138.034 9.74966 138.034 9.2747C138.034 8.79973 137.628 8.43031 137.13 8.43031ZM137.85 14.5873C138.348 14.5873 138.754 14.2003 138.754 13.7253C138.754 13.2503 138.348 12.8633 137.85 12.8633H131.924V14.5873H137.85Z" fill="white"/>
<path d="M148.329 17.6658H144.397V5.35183H148.329V17.6658Z" fill="white"/>
<path d="M164 5.35183V8.43031H158.795V17.6658H154.844V8.43031H149.657V5.35183H164Z" fill="white"/>
<path d="M17.8076 22.5896C16.4976 22.5896 15.4052 23.2247 14.7512 24.3334H37.3121L24.041 1.76389C23.3962 0.665213 22.2865 0.0371094 20.9948 0.0371094H14.8207L18.852 6.89305L28.0815 22.5896H17.8066H17.8076Z" fill="white"/>
<path d="M17.8076 22.5896C16.4976 22.5896 15.4052 23.2247 14.7512 24.3334H37.3121L24.041 1.76389C23.3962 0.665213 22.2865 0.0371094 20.9948 0.0371094H14.8207L18.852 6.89305L28.0815 22.5896H17.8066H17.8076Z" fill="url(#paint0_angular_9_912)"/>
<path d="M9.10708 22.6152L18.2222 6.97888H12.1199C10.8458 6.97888 9.75219 7.60386 9.11514 8.69606L0 24.3334H6.1023C7.37638 24.3334 8.47004 23.7084 9.10708 22.6152Z" fill="white"/>
<path d="M9.10708 22.6152L18.2222 6.97888H12.1199C10.8458 6.97888 9.75219 7.60386 9.11514 8.69606L0 24.3334H6.1023C7.37638 24.3334 8.47004 23.7084 9.10708 22.6152Z" fill="url(#paint1_angular_9_912)"/>
<defs>
<radialGradient id="paint0_angular_9_912" cx="0" cy="0" r="1" gradientUnits="userSpaceOnUse" gradientTransform="translate(23.9537 9.9137) rotate(81.7998) scale(14.5687 13.6707)">
<stop offset="0.130208" stop-color="#FACB7C"/>
<stop offset="0.385417" stop-color="#89F9E8"/>
<stop offset="0.640625" stop-color="#9299FC"/>
<stop offset="0.890625" stop-color="#D77DEE"/>
</radialGradient>
<radialGradient id="paint1_angular_9_912" cx="0" cy="0" r="1" gradientUnits="userSpaceOnUse" gradientTransform="translate(7.43275 14.0336) rotate(80.7449) scale(10.4356 11.0106)">
<stop offset="0.130208" stop-color="#FACB7C"/>
<stop offset="0.385417" stop-color="#89F9E8"/>
<stop offset="0.640625" stop-color="#9299FC"/>
<stop offset="0.890625" stop-color="#D77DEE"/>
</radialGradient>
</defs>
</svg>
